<svg width="32" height="32" viewBox="0 0 32 32" fill="none" xmlns="http://www.w3.org/2000/svg">
<path d="M24.3333 4C25.3058 4 26.2384 4.38631 26.9261 5.07394C27.6137 5.76158 28 6.69421 28 7.66667V24.3333C28 25.3058 27.6137 26.2384 26.9261 26.9261C26.2384 27.6137 25.3058 28 24.3333 28H7.66667C6.69421 28 5.76158 27.6137 5.07394 26.9261C4.38631 26.2384 4 25.3058 4 24.3333V7.66667C4 6.69421 4.38631 5.76158 5.07394 5.07394C5.76158 4.38631 6.69421 4 7.66667 4H24.3333ZM24.3333 6H7.66667C6.74667 6 6 6.74667 6 7.66667V24.3333C6 25.2533 6.74667 26 7.66667 26H24.3333C25.2533 26 26 25.2533 26 24.3333V7.66667C26 6.74667 25.2533 6 24.3333 6ZM13.3333 19.2533L21.96 10.6267C22.1387 10.4494 22.3776 10.346 22.6291 10.3371C22.8807 10.3283 23.1263 10.4146 23.317 10.5789C23.5077 10.7431 23.6294 10.9733 23.6579 11.2234C23.6864 11.4734 23.6195 11.7251 23.4707 11.928L23.3733 12.04L14.04 21.3733C13.8707 21.5427 13.6462 21.6457 13.4074 21.6635C13.1686 21.6814 12.9313 21.613 12.7387 21.4707L12.6267 21.3733L8.62667 17.3733C8.44939 17.1947 8.34601 16.9557 8.33715 16.7042C8.32829 16.4527 8.41461 16.207 8.57888 16.0163C8.74315 15.8256 8.97329 15.7039 9.22336 15.6754C9.47344 15.6469 9.72505 15.7138 9.928 15.8627L10.04 15.96L13.3333 19.2533L21.96 10.6267L13.3333 19.2533Z" fill="#6C63FF"/>
</svg>
